<?xml version="1.0" encoding="utf-8"?>
<!-- Generator: Adobe Illustrator 16.2.1, SVG Export Plug-In . SVG Version: 6.00 Build 0)  -->
<!DOCTYPE svg PUBLIC "-//W3C//DTD SVG 1.1//EN" "http://www.w3.org/Graphics/SVG/1.1/DTD/svg11.dtd">
<svg version="1.1" id="Layer_1" xmlns="http://www.w3.org/2000/svg" xmlns:xlink="http://www.w3.org/1999/xlink" x="0px" y="0px"
	 width="385.154px" height="71.394px" viewBox="0 0 385.154 71.394" enable-background="new 0 0 385.154 71.394"
	 xml:space="preserve">
<g>
	<path fill="#886E42" d="M290.615,2.389h37.5l-0.988,3.239c0,0-1.455,0.003-5.342,0.003c-4.182,0-5.803,3.586-6.199,5.014
		c0,0-7.738,25.093-9.018,29.249c-1.279,4.157-2.504,9.434-3.158,13.069c-0.533,3.368-0.477,13.676,19.398,13.676
		c17.887,0,27.086-11.533,31.006-23.708c3.646-11.304,7.67-28.164,9.01-32.394c1.072-3.378-1.752-4.907-3.291-4.907
		c-1.99,0-7.271,0-7.271,0l0.924-3.242h31.969l-1.029,3.249c0,0-3.227-0.013-5.258-0.013c-3.078,0-5.496,2.17-6.1,4.14
		c-1.512,4.959-8.451,22.503-12.533,34.87c-4.701,14.237-18.781,26.299-41.299,26.299c-6.711,0-16.129-1.455-21.971-4.363
		c-5.672-2.992-8.734-9.086-8.465-15.435c0,0,0.334-3.533,1.346-6.859c1.01-3.327,9.988-32.245,10.52-34.169
		c0.447-1.625-0.697-4.484-3.486-4.484l-7.277,0.008L290.615,2.389z"/>
	<path id="XMLID_1_" fill="#886E42" d="M0.994,65.761c0,0,2.699,0,4.9,0c2.762,0,6.061-0.863,7.385-4.541
		c1.207-3.35,20.045-50.553,20.045-50.553c-8.25-4.088-18.068-4.648-27.572-5.035l1.324-3.242c0,0,12.34,0,18.133,0
		c10.691,0,18.244,1.495,23.025,3.796c8.053,3.877,14.699,9.614,19.477,14.77c13.055,14.087,20.178,30.364,21.236,33.636
		l11.793-43.796c0.674-2.301-0.262-5.163-3.299-5.163c-2.992,0-6.484,0-7.289,0l1-3.242h31.58l-1.029,3.242c0,0-3.75,0-4.693,0
		c-4.217,0-6.012,2.517-6.768,4.924c-0.879,2.811-20.031,58.45-20.031,58.45H75.713c0,0-3.367-14.473-16.041-33.609
		C49.545,20.105,38.279,13.262,38.279,13.262s-13.887,45.137-14.65,47.731c-0.766,2.594,0.984,4.768,3.352,4.768
		c2.852,0,7.355,0,7.355,0l-0.992,3.244H0L0.994,65.761z"/>
	<path fill="#886E42" d="M166.373,0.015c-23.086,0.431-48.582,10.468-54.967,35.369c-6.371,24.833,12.262,36.486,38.73,35.994
		c23.086-0.43,48.58-10.467,54.967-35.368C211.475,11.177,192.84-0.476,166.373,0.015z M187.986,37.553
		c-7.037,22.245-24.457,29.874-38.6,29.485c-13.428-0.367-28.617-8.682-20.865-33.198c7.037-22.244,24.457-29.87,38.598-29.484
		C180.545,4.723,195.738,13.039,187.986,37.553z"/>
	<path fill="#886E42" d="M207.584,61.104c-0.738,2.385-2.715,4.656-6.188,4.656c-1.557,0-6.121-0.004-6.121-0.004l-1,3.248h46.926
		c19.602,0,33.896-4.564,37.273-16.297c3.061-10.643-6.094-16.383-17.137-17.825c15.594-1.849,22.51-7.995,24.291-14.717
		c2.395-9.032-5.512-17.776-25.004-17.776l-47.119,0.004l-0.996,3.238c0,0,5.105,0,7.23,0s4.318,1.93,3.457,4.731
		C222.127,13.849,208.381,58.515,207.584,61.104z M239.783,6.303c1.502,0,7.111,0,11.895,0c14.223,0,20.131,5.596,18.109,13.406
		c-2.617,10.121-12.936,12.928-23.551,12.928c-5.439,0-14.465-0.023-14.465-0.023L239.783,6.303z M236.762,65.091
		c-3.564,0-7.211,0-10.281,0c-2.807,0-3.873-2.764-3.383-4.43c0.393-1.332,7.518-24.177,7.518-24.177s11.143,0.02,14.92,0.02
		c15.25,0,19.848,7.248,18.01,14.541C262.178,56.456,256.363,65.091,236.762,65.091z"/>
</g>
</svg>
